<?xml version="1.0" encoding="utf-8"?>
<svg viewBox="0 0 500 283" xmlns="http://www.w3.org/2000/svg">
  <g transform="matrix(0.722482, -0.248771, 0.248771, 0.722482, -32.094925, 32.913582)">
    <g>
      <g>
        <path d="M494.08 493.89C494.22 491.82 495.3 490.9 495.42 488.55C497.76 489.85 514.37 492.36 516.78 489.89C522.03 484.5 513.19 467.62 509.43 463.86C504.47 458.89 503.66 451.97 495.42 447.84C484.12 442.19 471.6 441.86 460.71 436.49" transform="matrix(1, 0, 0, 1, 0, 0)" opacity="1" fill="#000000" fill-opacity="0"/>
        <g>
          <path d="M494.08 493.89C494.22 491.82 495.3 490.9 495.42 488.55C497.76 489.85 514.37 492.36 516.78 489.89C522.03 484.5 513.19 467.62 509.43 463.86C504.47 458.89 503.66 451.97 495.42 447.84C484.12 442.19 471.6 441.86 460.71 436.49" transform="matrix(1, 0, 0, 1, 0, 0)" opacity="1" fill-opacity="0" stroke="#000000" stroke-width="0.75" stroke-opacity="1"/>
        </g>
      </g>
      <g>
        <path d="M507.21 488.56C523.2 497.82 514.08 473.33 511.22 467.2C507.65 459.56 504.01 452.25 495.2 447.84C472.24 436.36 413.79 432.23 417.91 395.2C420.33 373.43 431.51 352.56 438.44 331.79C441.47 322.71 446.92 317.51 437.8 315.03C426.91 312.07 425.9 320.87 424.66 329.59C421.91 348.84 417.28 373.35 409.76 391.11C406.9 397.88 403.47 399.15 405.76 407.13C408.35 416.14 418 423.87 424.45 429.82C440.82 444.93 460.33 451.07 478.51 463.19C488.08 469.56 494.02 496.75 507.2 488.56" transform="matrix(1, 0, 0, 1, 0, 0)" opacity="1" fill="#73592b" fill-opacity="0"/>
        <g>
          <path d="M 428.67 310.034 C 425.92 329.284 417.28 373.35 409.76 391.11 C 406.9 397.88 403.47 399.15 405.76 407.13 C 408.35 416.14 418 423.87 424.45 429.82 C 440.82 444.93 467.981 452.264 486.161 464.384 C 495.731 470.754 493.197 497.689 506.377 489.499" transform="matrix(1, 0, 0, 1, 0, 0)" opacity="1" fill-opacity="0" stroke="#000000" stroke-width="0.75" stroke-opacity="1"/>
        </g>
      </g>
      <g>
        <path d="M460.49 436.49C442.6 428.94 417.94 419.79 417.77 396.45C417.62 374.67 432.21 350.09 439.13 329.71C443.16 317.88 440.6 316.36 451.15 316.36C454.37 316.36 458.34 312.58 459.83 317.03C461.37 321.66 463.45 326.1 463.16 331.04C462.64 340.06 458.1 341.28 452.48 345.73C449.34 348.22 445.81 352.38 441.8 353.73C448.97 361.91 464.33 359.68 472.51 355.07" transform="matrix(1, 0, 0, 1, 0, 0)" opacity="1" fill="#000000" fill-opacity="0"/>
        <g>
          <path d="M460.49 436.49C442.6 428.94 417.94 419.79 417.77 396.45C417.62 374.67 432.21 350.09 439.13 329.71C443.16 317.88 440.6 316.36 451.15 316.36C454.37 316.36 458.34 312.58 459.83 317.03C461.37 321.66 463.45 326.1 463.16 331.04C462.64 340.06 458.1 341.28 452.48 345.73C449.34 348.22 445.81 352.38 441.8 353.73C448.97 361.91 464.33 359.68 472.51 355.07" transform="matrix(1, 0, 0, 1, 0, 0)" opacity="1" fill-opacity="0" stroke="#000000" stroke-width="0.75" stroke-opacity="1"/>
        </g>
      </g>
      <g>
        <path d="M596.66 212.24C591.99 197.4 594.27 180.85 588.65 166.86C581.08 148.01 572.63 166.71 572.63 178.87C566.8 170.74 555.73 168.65 549.27 162.19C542.61 155.53 536.32 160.13 540.59 169.53" transform="matrix(1, 0, 0, 1, 0, 0)" opacity="1" fill="#000000" fill-opacity="0"/>
        <g>
          <path d="M596.66 212.24C591.99 197.4 594.27 180.85 588.65 166.86C581.08 148.01 572.63 166.71 572.63 178.87C566.8 170.74 555.73 168.65 549.27 162.19C542.61 155.53 536.32 160.13 540.59 169.53" transform="matrix(1, 0, 0, 1, 0, 0)" opacity="1" fill-opacity="0" stroke="#000000" stroke-width="0.75" stroke-opacity="1"/>
        </g>
      </g>
      <g>
        <path d="M505.88 311.01C530.59 301.71 553.35 286.18 564.62 261.62" transform="matrix(1, 0, 0, 1, 0, 0)" opacity="1" fill="#000000" fill-opacity="0"/>
        <g>
          <path d="M505.88 311.01C530.59 301.71 553.35 286.18 564.62 261.62" transform="matrix(1, 0, 0, 1, 0, 0)" opacity="1" fill-opacity="0" stroke="#000000" stroke-width="0.75" stroke-opacity="1"/>
        </g>
      </g>
      <g>
        <path d="M367.05 311.3C376.9 308.44 374.8 328.14 378.39 335.33C384.07 346.7 380.39 359.58 380.39 371.7C380.39 385.99 379.31 397.56 373.03 410.13C370.46 415.26 367.42 423.31 371.05 428.76C375.76 435.85 384.28 432.55 391.07 435.44C401.14 439.73 409.03 449.95 418.71 455.76C429.9 462.47 441.49 473.55 449.81 483.49C453.53 487.93 457.8 495.32 463.16 498.17C471.58 502.65 474.25 496.49 480.52 496.84C486.25 497.15 495.68 508.2 493.87 494.17" transform="matrix(1, 0, 0, 1, 0, 0)" opacity="1" fill="#000000" fill-opacity="0"/>
        <g>
          <path d="M367.05 311.3C376.9 308.44 374.8 328.14 378.39 335.33C384.07 346.7 380.39 359.58 380.39 371.7C380.39 385.99 379.31 397.56 373.03 410.13C370.46 415.26 367.42 423.31 371.05 428.76C375.76 435.85 384.28 432.55 391.07 435.44C401.14 439.73 409.03 449.95 418.71 455.76C429.9 462.47 441.49 473.55 449.81 483.49C453.53 487.93 457.8 495.32 463.16 498.17C471.58 502.65 474.25 496.49 480.52 496.84C486.25 497.15 495.68 508.2 493.87 494.17" transform="matrix(1, 0, 0, 1, 0, 0)" opacity="1" fill-opacity="0" stroke="#000000" stroke-width="0.75" stroke-opacity="1"/>
        </g>
      </g>
      <g>
        <path d="M584.64 212.24C584.49 200.59 578.46 187.89 572.63 178.87" transform="matrix(1, 0, 0, 1, 0, 0)" opacity="1" fill="#000000" fill-opacity="0"/>
        <g>
          <path d="M584.64 212.24C584.49 200.59 578.46 187.89 572.63 178.87" transform="matrix(1, 0, 0, 1, 0, 0)" opacity="1" fill-opacity="0" stroke="#000000" stroke-width="0.75" stroke-opacity="1"/>
        </g>
      </g>
      <g>
        <path d="M485.86 300.34C488.11 305.11 485.86 323.58 485.86 331.04C485.86 342.48 481.4 349.87 471.17 355.07" transform="matrix(1, 0, 0, 1, 0, 0)" opacity="1" fill="#000000" fill-opacity="0"/>
        <g>
          <path d="M485.86 300.34C488.11 305.11 485.86 323.58 485.86 331.04C485.86 342.48 481.4 349.87 471.17 355.07" transform="matrix(1, 0, 0, 1, 0, 0)" opacity="1" fill-opacity="0" stroke="#4c0d05" stroke-width="0.75" stroke-opacity="1"/>
        </g>
      </g>
      <g>
        <path d="M592.66 237.6C592.65 237.54 594.63 236.87 591.33 236.27C590.87 237.6 591.31 238.05 592.66 237.6" transform="matrix(1, 0, 0, 1, 0, 0)" opacity="1" fill="#e8cc75" fill-opacity="1"/>
        <g>
          <path d="M592.66 237.6C592.65 237.54 594.63 236.87 591.33 236.27C590.87 237.6 591.31 238.05 592.66 237.6" transform="matrix(1, 0, 0, 1, 0, 0)" opacity="1" fill-opacity="0" stroke="#000000" stroke-width="1" stroke-opacity="0"/>
        </g>
      </g>
      <g>
        <path d="M540.59 169.53C542.58 178.67 548.76 187.37 551.93 196.89C555.3 206.99 564.82 204.52 567.28 213.58C551.91 212.23 536.02 224.62 524.57 233.6C521.73 224.47 510.85 217.09 501.87 214.91C491.26 212.34 485.6 210.82 476.27 203.19C461.06 190.75 440.62 175.35 421.12 170.71C401.04 165.93 378.97 159.9 358.35 165.45C332.82 172.32 313.42 181.48 290 193.97C251.57 214.47 215.81 230.89 173.25 241.03C128.34 251.72 85.19 234.81 47.99 210.91" transform="matrix(1, 0, 0, 1, 0, 0)" opacity="1" fill="#000000" fill-opacity="0"/>
        <g>
          <path d="M540.59 169.53C542.58 178.67 548.76 187.37 551.93 196.89C555.3 206.99 564.82 204.52 567.28 213.58C551.91 212.23 536.02 224.62 524.57 233.6C521.73 224.47 510.85 217.09 501.87 214.91C491.26 212.34 485.6 210.82 476.27 203.19C461.06 190.75 440.62 175.35 421.12 170.71C401.04 165.93 378.97 159.9 358.35 165.45C332.82 172.32 313.42 181.48 290 193.97C251.57 214.47 215.81 230.89 173.25 241.03C128.34 251.72 85.19 234.81 47.99 210.91" transform="matrix(1, 0, 0, 1, 0, 0)" opacity="1" fill-opacity="0" stroke="#000000" stroke-width="0.75" stroke-opacity="1"/>
        </g>
      </g>
      <g>
        <path d="M48 210.91C35.27 200.3 24.56 189.74 14.38 176.65C9.83 170.8 6.97 163.91 4.64 156.92C2.71 151.15 6.68 144.37 5.28 138.83C-5.12 146.77 4.95 174.74 9.74 183.74C21.9 206.53 35.92 221.81 56.11 237.75C92.34 266.36 145.66 273.49 190.3 271.14C213.02 269.95 234.42 263.92 256.54 259.18C272.83 255.69 288.85 245.17 293.62 264.3C295.21 270.66 297.32 278.38 300.94 285.61C306.16 296.05 315.79 291.19 322.99 293.67C327.6 295.25 329.91 301.07 335.01 302.34C345.92 305.07 355.75 309.3 367.05 311.02" transform="matrix(1, 0, 0, 1, 0, 0)" opacity="1" fill="#000000" fill-opacity="0"/>
        <g>
          <path d="M48 210.91C35.27 200.3 24.56 189.74 14.38 176.65C9.83 170.8 6.97 163.91 4.64 156.92C2.71 151.15 6.68 144.37 5.28 138.83C-5.12 146.77 4.95 174.74 9.74 183.74C21.9 206.53 35.92 221.81 56.11 237.75C92.34 266.36 145.66 273.49 190.3 271.14C213.02 269.95 234.42 263.92 256.54 259.18C272.83 255.69 288.85 245.17 293.62 264.3C295.21 270.66 297.32 278.38 300.94 285.61C306.16 296.05 315.79 291.19 322.99 293.67C327.6 295.25 329.91 301.07 335.01 302.34C345.92 305.07 355.75 309.3 367.05 311.02" transform="matrix(1, 0, 0, 1, 0, 0)" opacity="1" fill-opacity="0" stroke="#000000" stroke-width="0.75" stroke-opacity="1"/>
        </g>
      </g>
      <g>
        <path d="M472.51 355.07C483.91 351.26 493.75 347.37 497.87 335.05C500.94 325.88 497.64 317.78 505.88 311.02C515.62 303.03 530.19 299.93 540.59 292.33C551.27 284.54 559.14 273.57 564.62 261.63C571.38 268.99 580.84 270.01 589.98 272.31C595.82 273.78 604.5 278.98 610.01 278.98C615.47 278.98 628.62 283.13 632.03 276.31C634.58 271.22 639.47 269.89 639.38 262.97" transform="matrix(1, 0, 0, 1, 0, 0)" opacity="1" fill="#000000" fill-opacity="0"/>
        <g>
          <path d="M472.51 355.07C483.91 351.26 493.75 347.37 497.87 335.05C500.94 325.88 497.64 317.78 505.88 311.02C515.62 303.03 530.19 299.93 540.59 292.33C551.27 284.54 559.14 273.57 564.62 261.63C571.38 268.99 580.84 270.01 589.98 272.31C595.82 273.78 604.5 278.98 610.01 278.98C615.47 278.98 628.62 283.13 632.03 276.31C634.58 271.22 639.47 269.89 639.38 262.97" transform="matrix(1, 0, 0, 1, 0, 0)" opacity="1" fill-opacity="0" stroke="#000000" stroke-width="0.75" stroke-opacity="1"/>
        </g>
      </g>
      <g>
        <path d="M639.39 262.97C637.66 256.15 623.97 244.03 619.36 236.27C613.68 226.69 600.32 221.68 596.67 212.24" transform="matrix(1, 0, 0, 1, 0, 0)" opacity="1" fill="#000000" fill-opacity="0"/>
        <g>
          <path d="M639.39 262.97C637.66 256.15 623.97 244.03 619.36 236.27C613.68 226.69 600.32 221.68 596.67 212.24" transform="matrix(1, 0, 0, 1, 0, 0)" opacity="1" fill-opacity="0" stroke="#000000" stroke-width="0.75" stroke-opacity="1"/>
        </g>
      </g>
      <g>
        <path d="M508.56 488.56C506.98 483.29 505.52 477.9 503.22 472.54" transform="matrix(1, 0, 0, 1, 0, 0)" opacity="1" fill="#000000" fill-opacity="0"/>
        <g>
          <path d="M508.56 488.56C506.98 483.29 505.52 477.9 503.22 472.54" transform="matrix(1, 0, 0, 1, 0, 0)" opacity="1" fill-opacity="0" stroke="#4c0d05" stroke-width="0.75" stroke-opacity="1"/>
        </g>
      </g>
      <g>
        <path d="M423.12 332.38C428.92 310.81 429.8 292.14 429.8 270.98C429.8 240.48 424.84 222.73 399.09 205.57" transform="matrix(1, 0, 0, 1, 0, 0)" opacity="1" fill="#000000" fill-opacity="0"/>
        <g>
          <path d="M423.12 332.38C428.92 310.81 429.8 292.14 429.8 270.98C429.8 240.48 424.84 222.73 399.09 205.57" transform="matrix(1, 0, 0, 1, 0, 0)" opacity="1" fill-opacity="0" stroke="#4c0d05" stroke-width="0.75" stroke-opacity="1"/>
        </g>
      </g>
      <g>
        <path d="M305.65 266.97C310.84 276.75 319.07 291.9 328.34 297.67" transform="matrix(1, 0, 0, 1, 0, 0)" opacity="1" fill="#000000" fill-opacity="0"/>
        <g>
          <path d="M305.65 266.97C310.84 276.75 319.07 291.9 328.34 297.67" transform="matrix(1, 0, 0, 1, 0, 0)" opacity="1" fill-opacity="0" stroke="#4c0d05" stroke-width="0.75" stroke-opacity="1"/>
        </g>
      </g>
      <g>
        <path d="M459.16 315.02C454.66 302.52 452 289.55 447.82 276.98C445.5 270.03 474.27 259.8 480.52 260.29" transform="matrix(1, 0, 0, 1, 0, 0)" opacity="1" fill="#000000" fill-opacity="0"/>
        <g>
          <path d="M459.16 315.02C454.66 302.52 452 289.55 447.82 276.98C445.5 270.03 474.27 259.8 480.52 260.29" transform="matrix(1, 0, 0, 1, 0, 0)" opacity="1" fill-opacity="0" stroke="#4c0d05" stroke-width="0.75" stroke-opacity="1"/>
        </g>
      </g>
    </g>
  </g>
</svg>